<svg id="img_dashboard_banner" xmlns="http://www.w3.org/2000/svg" viewBox="0 0 163.978 63.866"><defs><style>.cls-1{fill:#ff57ab}.cls-3{fill:#31323f}.cls-4{fill:#8e43e8}.cls-6{fill:#ffd842}.cls-8{fill:#22232d}.cls-11{fill:#fff}.cls-12{fill:#46e895}.cls-15{fill:#08c9f2}</style></defs><g id="Group_188" data-name="Group 188" transform="translate(0 2.279)"><circle id="Ellipse_150" data-name="Ellipse 150" class="cls-1" cx="30.675" cy="30.675" r="30.675" transform="translate(1.377)"/><path id="Path_415" data-name="Path 415" d="M67.1 419.2a30.692 30.692 0 0047.3 0z" transform="translate(-58.699 -368.994)" fill="#db3e94"/><path id="Path_416" data-name="Path 416" class="cls-3" d="M63.14 91.994H.964A.964.964 0 010 91.03V49.964A.973.973 0 01.964 49H63.14a.964.964 0 01.964.964V91.03a.964.964 0 01-.964.964z" transform="translate(0 -45.144)"/><path id="Path_417" data-name="Path 417" class="cls-4" d="M77.708 104.454h-58.77a.337.337 0 01-.338-.338V71.438a.337.337 0 01.338-.338H77.7a.337.337 0 01.338.338v32.69a.331.331 0 01-.33.326z" transform="translate(-16.271 -64.477)"/><path id="Rectangle_58" data-name="Rectangle 58" transform="translate(9.778 10.392)" fill="#f8f8f8" d="M0 0h44.547v29.585H0z"/><path id="Path_418" data-name="Path 418" class="cls-6" d="M210.914 101.2h-29.047a18.448 18.448 0 0029.033 22.5v-22.5z" transform="translate(-156.589 -90.808)"/><path id="Path_419" data-name="Path 419" d="M205.951 392.4h11.218l.751 7.85H205.2z" transform="translate(-179.509 -345.549)" fill="#393a47"/><circle id="Ellipse_151" data-name="Ellipse 151" class="cls-8" cx="1.966" cy="1.966" r="1.966" transform="translate(30.086 41.392)"/><g id="Group_184" data-name="Group 184" transform="translate(13.759 20.533)"><path id="Path_420" data-name="Path 420" class="cls-3" d="M122.791 182.914h-12.42a.37.37 0 01-.376-.338.356.356 0 01.351-.376h12.608c.346.326.137.714-.163.714z" transform="translate(-109.982 -182.2)"/><path id="Path_421" data-name="Path 421" class="cls-3" d="M122.791 192.114h-12.42a.37.37 0 01-.376-.338.356.356 0 01.351-.376h12.608c.346.313.137.714-.163.714z" transform="translate(-109.982 -190.248)"/><path id="Path_422" data-name="Path 422" class="cls-3" d="M119.586 201.214h-9.315a.37.37 0 01-.376-.338.356.356 0 01.351-.376h9.5c.366.326.154.714-.16.714z" transform="translate(-109.895 -198.209)"/></g><g id="Group_185" data-name="Group 185" transform="translate(13.759 25.641)"><path id="Path_423" data-name="Path 423" class="cls-3" d="M122.791 223.714h-12.42a.37.37 0 01-.376-.338.356.356 0 01.351-.376h12.608c.346.313.137.714-.163.714z" transform="translate(-109.982 -223)"/><path id="Path_424" data-name="Path 424" class="cls-3" d="M122.791 232.814h-12.42a.37.37 0 01-.376-.338.356.356 0 01.351-.376h12.608c.346.326.137.714-.163.714z" transform="translate(-109.982 -230.961)"/><path id="Path_425" data-name="Path 425" class="cls-3" d="M119.586 242.014h-9.315a.37.37 0 01-.376-.338.356.356 0 01.351-.376h9.5c.366.326.154.714-.16.714z" transform="translate(-109.895 -239.009)"/></g><path id="Path_426" data-name="Path 426" class="cls-8" d="M221.594 393.89l-.138-1.49h-11.218l-.138 1.49z" transform="translate(-183.795 -345.549)"/><path id="Path_427" data-name="Path 427" d="M183.4 446.177h18.179l-.179-1.277h-17.825z" transform="translate(-160.438 -391.476)" fill="#474959"/><g id="Group_187" data-name="Group 187" transform="translate(12.99 12.234)"><circle id="Ellipse_152" data-name="Ellipse 152" cx="2.554" cy="2.554" r="2.554" transform="rotate(-67.5 3.532 2.36)" fill="#16bae7"/><g id="Group_186" data-name="Group 186" transform="translate(1.483 2.54)"><path id="Path_428" data-name="Path 428" class="cls-11" d="M122.9 156.4l-.2.2.075.025.038-.038.088.038v.05l.075.025v-.275zm-.013.163l-.05-.025.05-.05z" transform="translate(-121.811 -153.871)"/><path id="Path_429" data-name="Path 429" class="cls-11" d="M121.925 155.463l.038-.05-.2-.113-.025.05.063.038-.1.175.063.038.1-.175z" transform="translate(-120.936 -152.909)"/><path id="Path_430" data-name="Path 430" class="cls-11" d="M118.129 152.625l-.1.1a.053.053 0 01-.075-.075l.1-.1-.05-.05-.1.1a.1.1 0 000 .163.112.112 0 00.175 0l.1-.1z" transform="translate(-117.578 -150.459)"/><path id="Path_431" data-name="Path 431" class="cls-11" d="M116.4 140.213l-.088-.413h-.275l-.088.413-.088-.413h-.261l.175.789h.363l.038-.213.05.213h.351l.188-.789h-.275z" transform="translate(-115.6 -139.349)"/><path id="Path_432" data-name="Path 432" class="cls-11" d="M127.713 157.558c0-.013.013-.013.025-.013a.069.069 0 01.063.038l.038-.05a.252.252 0 00-.1-.05.091.091 0 00-.113.075c0 .05.038.075.088.088s.038.012.038.025c0 .013-.013.013-.025.013a.089.089 0 01-.075-.038l-.05.038a.136.136 0 00.113.05.086.086 0 00.113-.075c0-.05-.025-.075-.088-.088-.025.013-.038 0-.025-.013z" transform="translate(-126.098 -154.816)"/><path id="Rectangle_59" data-name="Rectangle 59" class="cls-11" transform="rotate(-88.928 2.387 .572)" d="M0 0h.263v.075H0z"/><path id="Path_433" data-name="Path 433" class="cls-11" d="M125.113 157.052c0-.013.013-.013.025-.013a.106.106 0 01.063.038l.05-.038a.225.225 0 00-.088-.063c-.063-.013-.1.013-.113.05-.013.05.025.075.075.1s.038.025.038.038c0 .013-.013.013-.038.013a.262.262 0 01-.075-.05l-.05.038a.2.2 0 00.1.075c.063.012.113 0 .125-.05.013-.05-.013-.075-.075-.1q-.038-.019-.038-.038z" transform="translate(-123.823 -154.373)"/><path id="Rectangle_60" data-name="Rectangle 60" class="cls-11" transform="translate(3.355 .451)" d="M0 0h.275v.789H0z"/><path id="Path_434" data-name="Path 434" class="cls-11" d="M142.45 136.5a.15.15 0 10-.15-.15.152.152 0 00.15.15z" transform="translate(-138.957 -136.2)"/><path id="Path_435" data-name="Path 435" class="cls-11" d="M128.963 140.576a.445.445 0 00.125.025.4.4 0 00.4-.4v-.063a.408.408 0 00-.275-.326.386.386 0 00-.125-.013h-.025a.485.485 0 00-.125.038v-.025h-.238v1.164h.275v-.4zm-.025-.451a.163.163 0 01.15-.1.191.191 0 01.15.088.181.181 0 01.025.088.163.163 0 01-.326 0 .08.08 0 01.001-.075z" transform="translate(-127.06 -139.349)"/><path id="Rectangle_61" data-name="Rectangle 61" class="cls-11" transform="translate(1.252 .451)" d="M0 0h.275v.789H0z"/><path id="Path_436" data-name="Path 436" class="cls-11" d="M116.547 151.534a.062.062 0 01.013-.088.053.053 0 01.088.013.113.113 0 01.013.063l.063.013a.124.124 0 00-.025-.125.127.127 0 00-.188-.025.127.127 0 00-.025.188.118.118 0 00.113.05v-.063c-.015-.001-.027-.001-.052-.026z" transform="translate(-116.346 -149.456)"/><path id="Path_437" data-name="Path 437" class="cls-11" d="M125.55 136.5a.15.15 0 10-.15-.15.173.173 0 00.15.15z" transform="translate(-124.173 -136.2)"/><path id="Path_438" data-name="Path 438" class="cls-11" d="M119.872 154.384a.126.126 0 00-.188.025.127.127 0 00.025.188.126.126 0 00.188-.025.128.128 0 00-.025-.188zm-.025.15a.062.062 0 01-.088.013.076.076 0 01-.013-.1.062.062 0 01.088-.013.1.1 0 01.013.1z" transform="translate(-119.146 -152.08)"/><path id="Path_439" data-name="Path 439" class="cls-11" d="M141.3 151.938l-.05-.038-.15.163.05.05.05-.063.138.125.05-.05-.138-.125z" transform="translate(-137.907 -149.934)"/><path id="Path_440" data-name="Path 440" class="cls-11" d="M135.513 156.525l-.013.275.075-.025v-.05l.088-.038.038.038.075-.025-.2-.2zm.063.15v-.075l.05.063z" transform="translate(-133.008 -153.958)"/><path id="Path_441" data-name="Path 441" class="cls-11" d="M139.988 153.538l-.025-.038.088-.075-.038-.05-.088.088-.025-.038.1-.088-.038-.038-.163.138.175.188.15-.138-.038-.05z" transform="translate(-136.77 -151.159)"/><path id="Path_442" data-name="Path 442" class="cls-11" d="M137.238 155.6c-.013-.025-.025-.038-.05-.038s-.05 0-.088.013l-.1.063.125.225.063-.038-.038-.063.025-.013.088.038.075-.038-.1-.05a.137.137 0 000-.099zm-.088.088l-.038.025-.025-.05.038-.025c.025-.013.038-.013.05.013.013.013 0 .025-.025.038z" transform="translate(-134.321 -153.135)"/><path id="Path_443" data-name="Path 443" class="cls-11" d="M142.638 151l-.038.05.15.238.038-.063-.025-.038.063-.075.05.013.038-.063zm.088.138l-.038-.063.075.013z" transform="translate(-139.22 -149.147)"/><path id="Path_444" data-name="Path 444" class="cls-11" d="M139.263 154.5l-.063.038.1.138c.013.025.013.038 0 .05s-.025.013-.05 0l-.013.063a.1.1 0 00.1-.013.069.069 0 00.038-.063.092.092 0 00-.025-.075z" transform="translate(-136.245 -152.209)"/><path id="Path_445" data-name="Path 445" class="cls-11" d="M133.525 157l-.225.05.025.063.063-.025.05.188.075-.013-.05-.188.075-.025z" transform="translate(-131.084 -154.396)"/><path id="Path_446" data-name="Path 446" class="cls-11" d="M130.775 157.513l.012.138-.125-.125h-.062l.025.25h.063l-.012-.138.125.125h.063l-.025-.263z" transform="translate(-128.722 -154.833)"/><path id="Path_447" data-name="Path 447" class="cls-11" d="M135.8 140.6a.374.374 0 00.313-.163l-.15-.1-.025-.013a.207.207 0 01-.15.063.177.177 0 01-.175-.125h.563v-.062a.388.388 0 10-.776 0 .421.421 0 00.4.4zm0-.588a.214.214 0 01.163.088h-.313a.152.152 0 01.15-.087z" transform="translate(-132.921 -139.349)"/></g></g></g><g id="Group_193" data-name="Group 193" transform="translate(102.265)"><path id="Path_448" data-name="Path 448" class="cls-12" d="M816.8 47.962a30.775 30.775 0 0010.617 23.3 31.155 31.155 0 009.528 5.659 30.87 30.87 0 10-5.245-55.376 30.758 30.758 0 00-14.9 26.418z" transform="translate(-816.8 -14.959)"/><path id="Path_449" data-name="Path 449" class="cls-1" d="M875.15 102.23h-37.4a30.877 30.877 0 01-9.15-13.872l1.791-23.25.976-12.608h39.965l1.415 18.442z" transform="translate(-827.123 -45.927)"/><path id="Path_450" data-name="Path 450" d="M981.263 231.088H949.9l2.416-31.288h26.543z" transform="translate(-933.236 -174.785)" fill="#dd4e9d"/><g id="Group_189" data-name="Group 189" transform="translate(14.548)"><path id="Rectangle_62" data-name="Rectangle 62" transform="rotate(-90 2.091 .889)" fill="#7839d1" d="M0 0h2.98v17.128H0z"/><path id="Path_451" data-name="Path 451" class="cls-4" d="M1060.129 11.969a1.485 1.485 0 01-1.49-1.49l-.939-7.5L1060.417 0l1.2 10.479a1.485 1.485 0 01-1.488 1.49z" transform="translate(-1042.087)"/><path id="Path_452" data-name="Path 452" class="cls-4" d="M934.476 11.969a1.485 1.485 0 001.49-1.49l.939-7.5L934.2 0 933 10.479a1.475 1.475 0 001.476 1.49z" transform="translate(-932.999)"/></g><path id="Path_453" data-name="Path 453" class="cls-6" d="M1016.7 177.6h-35.845l-3.055 39.714a30.913 30.913 0 0040.378-20.433zm-8 7.475a2.907 2.907 0 01-2.9 2.9h-14.2a2.907 2.907 0 01-2.9-2.9 2.907 2.907 0 012.9-2.9h14.2a2.907 2.907 0 012.9 2.9z" transform="translate(-957.642 -155.364)"/><g id="Group_192" data-name="Group 192" transform="translate(31.426 39.113)"><g id="Group_191" data-name="Group 191"><circle id="Ellipse_153" data-name="Ellipse 153" class="cls-6" cx="9.578" cy="9.578" r="9.578"/><g id="Group_190" data-name="Group 190" transform="translate(2.917 4.77)"><path id="Path_454" data-name="Path 454" class="cls-3" d="M1103.669 386.441a5.909 5.909 0 11-11.819 0 .376.376 0 00-.751 0 6.667 6.667 0 0013.334 0 .382.382 0 00-.764 0z" transform="translate(-1091.099 -381.621)"/><circle id="Ellipse_154" data-name="Ellipse 154" class="cls-3" cx="1.502" cy="1.502" r="1.502" transform="translate(2.254)"/><circle id="Ellipse_155" data-name="Ellipse 155" class="cls-3" cx="1.502" cy="1.502" r="1.502" transform="translate(7.938)"/></g></g></g></g><g id="Group_195" data-name="Group 195" transform="translate(77.325 28.108)"><g id="Group_194" data-name="Group 194"><path id="Path_455" data-name="Path 455" class="cls-15" d="M618.251 230.247h7.788l-2.466 2.454a.635.635 0 00-.188.451.615.615 0 00.188.451l.375.376a.635.635 0 00.9 0l4.207-4.194a.615.615 0 00.188-.451.6.6 0 00-.188-.451l-4.194-4.194a.635.635 0 00-.9 0l-.375.376a.615.615 0 00-.188.451.568.568 0 00.188.438l2.479 2.466h-7.813a.663.663 0 00-.651.651v.538a.644.644 0 00.65.638z" transform="translate(-617.6 -224.5)"/></g></g><g id="Group_197" data-name="Group 197" transform="translate(88.543 18.38)"><g id="Group_196" data-name="Group 196"><path id="Path_456" data-name="Path 456" class="cls-15" d="M707.626 150.544h5.046l-1.59 1.59a.432.432 0 00-.125.288.363.363 0 00.125.288l.25.25a.408.408 0 00.288.125.363.363 0 00.288-.125l2.729-2.729a.432.432 0 00.125-.288.363.363 0 00-.125-.288l-2.729-2.729a.408.408 0 00-.288-.125.363.363 0 00-.288.125l-.25.25a.408.408 0 00-.125.288.363.363 0 00.125.288l1.6 1.6h-5.071a.428.428 0 00-.413.426v.351a.428.428 0 00.428.415z" transform="translate(-707.2 -146.8)"/></g></g><g id="Group_199" data-name="Group 199" transform="translate(73.193 43.47)"><g id="Group_198" data-name="Group 198"><path id="Path_457" data-name="Path 457" class="cls-15" d="M585.163 352.108h6.637l-2.091 2.091a.549.549 0 00-.163.388.5.5 0 00.163.388l.325.326a.549.549 0 00.388.163.5.5 0 00.388-.163l3.581-3.581a.55.55 0 00.163-.388.5.5 0 00-.163-.388l-3.581-3.581a.544.544 0 00-.776 0l-.325.326a.549.549 0 00-.163.388.476.476 0 00.163.376l2.116 2.1h-6.673a.567.567 0 00-.551.563v.463a.563.563 0 00.562.529z" transform="translate(-584.6 -347.2)"/></g></g><g id="Group_201" data-name="Group 201" transform="translate(71.465 18.743)"><g id="Group_200" data-name="Group 200"><path id="Path_458" data-name="Path 458" class="cls-15" d="M571.188 153.005h4.47l-1.415 1.415a.363.363 0 000 .526l.225.225a.363.363 0 00.526 0l2.416-2.416a.363.363 0 000-.526l-2.416-2.416a.363.363 0 00-.526 0l-.225.225a.341.341 0 00-.113.263.315.315 0 00.113.25l1.427 1.415h-4.495a.385.385 0 00-.376.376v.313a.384.384 0 00.389.35z" transform="translate(-570.8 -149.7)"/></g></g><g id="Group_203" data-name="Group 203" transform="translate(88.956 44.81)"><g id="Group_202" data-name="Group 202"><path id="Path_459" data-name="Path 459" class="cls-15" d="M710.888 361.218h4.47l-1.415 1.415a.363.363 0 000 .526l.225.225a.363.363 0 00.526 0l2.416-2.416a.363.363 0 000-.526l-2.416-2.429a.363.363 0 00-.526 0l-.225.225a.341.341 0 00-.113.263.315.315 0 00.113.25l1.427 1.415h-4.495a.385.385 0 00-.376.376v.313a.4.4 0 00.389.363z" transform="translate(-710.5 -357.9)"/></g></g><g id="Group_217" data-name="Group 217" transform="translate(31.25 15.325)"><g id="Group_204" data-name="Group 204" transform="translate(9.177)"><path id="Path_460" data-name="Path 460" d="M323.063 130.764a.166.166 0 01-.163-.163v-4.019a1.615 1.615 0 113.23 0v1.127a1.114 1.114 0 102.229 0v-5.146a.163.163 0 01.326 0v5.146a1.452 1.452 0 01-2.9 0v-1.127a1.277 1.277 0 10-2.554 0v4.018a.166.166 0 01-.168.164z" transform="translate(-322.9 -122.4)" fill="#38454f"/></g><g id="Group_205" data-name="Group 205" transform="translate(0 8.201)"><path id="Path_461" data-name="Path 461" d="M264.174 196.89a12.717 12.717 0 01-3-.426 9.37 9.37 0 00-4.708 0 11.769 11.769 0 01-3 .426c-2.2-.025-3.856-2.241-3.856-4.495a4.507 4.507 0 014.495-4.495h9.428a4.454 4.454 0 014.432 4.495c-.01 2.253-1.6 4.457-3.791 4.495z" transform="translate(-249.6 -187.9)" fill="#cbd4d8"/></g><g id="Group_207" data-name="Group 207" transform="translate(8.489 9.265)"><g id="Group_206" data-name="Group 206"><path id="Path_462" data-name="Path 462" class="cls-3" d="M319.1 196.826h-1.49a.211.211 0 01-.213-.213.219.219 0 01.213-.213h1.49a.211.211 0 01.213.213.219.219 0 01-.213.213z" transform="translate(-317.4 -196.4)"/></g></g><g id="Group_208" data-name="Group 208" transform="translate(10.63 11.731)"><circle id="Ellipse_156" data-name="Ellipse 156" class="cls-12" cx=".964" cy=".964" r=".964"/></g><g id="Group_209" data-name="Group 209" transform="translate(10.855 11.957)"><circle id="Ellipse_157" data-name="Ellipse 157" cx=".739" cy=".739" r=".739" fill="#39d37f"/></g><g id="Group_210" data-name="Group 210" transform="translate(15.137 11.731)"><circle id="Ellipse_158" data-name="Ellipse 158" class="cls-4" cx=".964" cy=".964" r=".964"/></g><g id="Group_211" data-name="Group 211" transform="translate(15.337 11.932)"><circle id="Ellipse_159" data-name="Ellipse 159" cx=".764" cy=".764" r=".764" fill="#7d3bdb"/></g><g id="Group_212" data-name="Group 212" transform="translate(12.883 13.985)"><circle id="Ellipse_160" data-name="Ellipse 160" class="cls-6" cx=".964" cy=".964" r=".964"/></g><g id="Group_213" data-name="Group 213" transform="translate(13.046 14.148)"><circle id="Ellipse_161" data-name="Ellipse 161" cx=".801" cy=".801" r=".801" fill="#f2c32a"/></g><g id="Group_214" data-name="Group 214" transform="translate(12.883 9.478)"><circle id="Ellipse_162" data-name="Ellipse 162" cx=".964" cy=".964" r=".964" fill="#1bcefc"/></g><g id="Group_215" data-name="Group 215" transform="translate(13.096 9.691)"><circle id="Ellipse_163" data-name="Ellipse 163" class="cls-15" cx=".751" cy=".751" r=".751"/></g><g id="Group_216" data-name="Group 216" transform="translate(2.579 10.442)"><path id="Path_463" data-name="Path 463" class="cls-1" d="M274.707 207.09h-1.29v-1.29h-1.927v1.29h-1.29v1.928h1.29v1.29h1.928v-1.29h1.29z" transform="translate(-270.2 -205.8)"/></g></g></svg>